<?xml version="1.0" ?>
<!-- Uploaded to: SVG Repo, www.svgrepo.com, Generator: SVG Repo Mixer Tools -->
<svg width="800px" height="800px" viewBox="0 0 1000 1000" id="Layer_2" version="1.1" xml:space="preserve" xmlns="http://www.w3.org/2000/svg" xmlns:xlink="http://www.w3.org/1999/xlink">
<g>
<path d="M832.229,537.008V529.5c0-23.435-19.065-42.5-42.5-42.5h-92.574c-1.77-8.04-8.46-14.32-16.94-15.32   l-31.68-3.74c-3.9-18-11-34.82-20.69-49.82l19.79-25.08c6.2-7.85,5.54-19.09-1.53-26.16l-12.36-12.36   c-7.07-7.07-18.31-7.73-26.16-1.53l-25.08,19.79c-15-9.69-31.82-16.79-49.82-20.69l-3.74-31.67c-1.02-8.66-7.54-15.46-15.82-17.06   v-99.636c8.902-4.553,15-13.807,15-24.492c0-15.188-12.312-27.5-27.5-27.5c-15.188,0-27.5,12.312-27.5,27.5   c0,10.685,6.098,19.94,15,24.492v99.636c-8.27,1.6-14.8,8.4-15.82,17.06l-3.74,31.67c-18,3.9-34.82,11-49.82,20.69l-25.08-19.79   c-7.85-6.2-19.09-5.54-26.16,1.53l-12.36,12.36c-7.07,7.07-7.73,18.31-1.53,26.16l19.79,25.08c-9.69,15-16.79,31.82-20.69,49.82   l-31.67,3.74c-8.49,1-15.18,7.28-16.95,15.32H212.77c-23.435,0-42.5,19.065-42.5,42.5v6.383c-10.241,4.001-17.5,13.958-17.5,25.617   c0,15.188,12.312,27.5,27.5,27.5c15.188,0,27.5-12.312,27.5-27.5c0-9.652-4.977-18.137-12.5-23.044V529.5   c0-9.649,7.851-17.5,17.5-17.5h91.124c1.42,8.51,8.31,15.28,17.15,16.32l31.67,3.74c3.9,18,11,34.82,20.69,49.82l-19.79,25.08   c-6.2,7.85-5.54,19.09,1.53,26.16l12.36,12.36c7.07,7.07,18.31,7.73,26.16,1.53l25.08-19.79c15,9.69,31.82,16.79,49.82,20.69   l3.74,31.67c1.02,8.66,7.55,15.46,15.82,17.06v99.636c-8.902,4.553-15,13.807-15,24.492c0,15.188,12.312,27.5,27.5,27.5   c15.188,0,27.5-12.312,27.5-27.5c0-10.685-6.098-19.94-15-24.492V696.64c8.28-1.6,14.8-8.4,15.82-17.06l3.74-31.67   c18-3.9,34.82-11,49.82-20.69l25.08,19.79c7.85,6.2,19.09,5.54,26.16-1.53l12.36-12.36c7.07-7.07,7.73-18.31,1.53-26.16   l-19.79-25.08c9.69-15,16.79-31.82,20.69-49.82l31.68-3.74c8.83-1.04,15.72-7.81,17.14-16.32h92.375c9.649,0,17.5,7.851,17.5,17.5   v7.508c-8.902,4.552-15,13.807-15,24.492c0,15.188,12.312,27.5,27.5,27.5c15.188,0,27.5-12.312,27.5-27.5   C847.229,550.815,841.131,541.56,832.229,537.008z M571.768,584.687v-74.695c8.902-4.552,15-13.807,15-24.492   c0-15.188-12.312-27.5-27.5-27.5c-15.188,0-27.5,12.312-27.5,27.5c0,10.685,6.098,19.94,15,24.492v90.576   c-0.001,0-0.002,0.001-0.003,0.002c-10.44,4.82-21.76,8.05-33.64,9.38v-51.458c8.902-4.552,15-13.807,15-24.492   c0-15.188-12.312-27.5-27.5-27.5c-15.188,0-27.5,12.312-27.5,27.5c0,10.685,6.098,19.94,15,24.492v51.458   c-12.529-1.41-24.437-4.919-35.357-10.179v-89.779c8.902-4.552,15-13.807,15-24.492c0-15.188-12.312-27.5-27.5-27.5   c-15.188,0-27.5,12.312-27.5,27.5c0,10.685,6.098,19.94,15,24.492v73.23c-0.001-0.001-0.002-0.002-0.003-0.003   c-23.16-20.3-37.8-50.08-37.8-83.22c0-61.02,49.64-110.66,110.66-110.66s110.66,49.64,110.66,110.66   C611.285,533.948,595.917,564.377,571.768,584.687z" style="fill:#231F20;"/>
<path d="M225.775,266v10.7c0,23.44,19.06,42.5,42.5,42.5h23.57c4.67,0,9.07,1.82,12.37,5.13l29.34,29.34   c1.19-1.56,2.5-3.05,3.92-4.47l12.35-12.35c0.38-0.38,0.77-0.76,1.16-1.11l-29.09-29.09c-8.03-8.03-18.7-12.45-30.05-12.45h-23.57   c-9.65,0-17.5-7.85-17.5-17.5V266c15.95-5.26,27.5-20.3,27.5-38c0-22.06-17.95-40-40-40c-22.06,0-40,17.94-40,40   C198.275,245.7,209.815,260.74,225.775,266z M238.275,213c8.27,0,15,6.73,15,15c0,3.06-0.92,5.9-2.5,8.27   c-2.68,4.05-7.28,6.73-12.5,6.73c-5.21,0-9.81-2.67-12.5-6.71c-1.58-2.38-2.5-5.22-2.5-8.29   C223.275,219.73,229.995,213,238.275,213z" style="fill:#231F20;"/>
<path d="M762.975,724.3c-17.69,0-32.74,11.54-38,27.5h-0.5c-9.64,0-17.5-7.85-17.5-17.5v-23.57   c0-11.36-4.42-22.03-12.44-30.06l-30.32-30.32c-0.14,0.15-0.29,0.3-0.44,0.45l-12.35,12.35c-1.65,1.65-3.41,3.16-5.26,4.51   l30.69,30.69c3.3,3.31,5.12,7.7,5.12,12.38v23.57c0,23.43,19.07,42.5,42.5,42.5h0.5c5.26,15.96,20.31,27.5,38,27.5   c22.06,0,40-17.94,40-40C802.975,742.24,785.035,724.3,762.975,724.3z M762.975,779.3c-3.06,0-5.92-0.92-8.29-2.5   c-4.04-2.7-6.71-7.29-6.71-12.5c0-5.21,2.67-9.8,6.71-12.5c2.37-1.58,5.23-2.5,8.29-2.5c8.28,0,15,6.73,15,15   C777.975,772.57,771.255,779.3,762.975,779.3z" style="fill:#231F20;"/>
<path d="M663.775,349.2c1.42,1.42,2.73,2.91,3.92,4.47l29.34-29.34c3.3-3.31,7.7-5.13,12.37-5.13h23.57   c23.44,0,42.5-19.06,42.5-42.5V266c15.96-5.26,27.5-20.3,27.5-38c0-22.06-17.94-40-40-40c-22.05,0-40,17.94-40,40   c0,17.7,11.55,32.74,27.5,38v10.7c0,9.65-7.85,17.5-17.5,17.5h-23.57c-11.35,0-22.02,4.42-30.05,12.45l-29.09,29.09   c0.39,0.35,0.78,0.73,1.16,1.11L663.775,349.2z M747.975,228c0-8.27,6.73-15,15-15c8.28,0,15,6.73,15,15c0,3.07-0.92,5.91-2.5,8.29   c-2.69,4.04-7.29,6.71-12.5,6.71c-5.22,0-9.82-2.68-12.5-6.73C748.895,233.9,747.975,231.06,747.975,228z" style="fill:#231F20;"/>
<path d="M337.475,650.8c-0.15-0.15-0.3-0.3-0.44-0.45l-30.32,30.32c-8.02,8.03-12.44,18.7-12.44,30.06v23.57   c0,9.65-7.86,17.5-17.5,17.5h-0.5c-5.26-15.96-20.31-27.5-38-27.5c-22.06,0-40,17.94-40,40c0,22.06,17.94,40,40,40   c17.69,0,32.74-11.54,38-27.5h0.5c23.43,0,42.5-19.07,42.5-42.5v-23.57c0-4.68,1.82-9.07,5.12-12.38l30.69-30.69   c-1.85-1.35-3.61-2.86-5.26-4.51L337.475,650.8z M238.275,779.3c-8.28,0-15-6.73-15-15c0-8.27,6.72-15,15-15   c3.06,0,5.92,0.92,8.29,2.5c4.04,2.7,6.71,7.29,6.71,12.5c0,5.21-2.67,9.8-6.71,12.5C244.195,778.38,241.335,779.3,238.275,779.3z" style="fill:#231F20;"/>
</g>
</svg>